<svg id="visual" viewBox="0 0 900 600" width="900" height="600" xmlns="http://www.w3.org/2000/svg" xmlns:xlink="http://www.w3.org/1999/xlink" version="1.1"><g transform="translate(1.1954647020758387 2.7891977529986036)"><path d="M105.8 -183.2C137 -165.3 162 -136.7 192.2 -104.3C222.4 -72 257.7 -36 253.6 -2.4C249.5 31.3 205.9 62.5 181.2 104.2C156.4 145.9 150.5 198.1 123.4 219.1C96.3 240.2 48.2 230.1 3.8 223.5C-40.5 216.8 -81 213.6 -109.1 193.2C-137.3 172.8 -153.1 135.1 -177.8 100.1C-202.6 65 -236.3 32.5 -249.6 -7.7C-262.8 -47.8 -255.7 -95.7 -235.7 -139C-215.7 -182.3 -182.8 -221 -141.4 -233C-100 -244.9 -50 -229.9 -6.3 -219C37.3 -208 74.7 -201 105.8 -183.2" fill="#7C3AED"></path></g></svg>