<svg id="visual" viewBox="0 0 900 600" width="900" height="600" xmlns="http://www.w3.org/2000/svg" xmlns:xlink="http://www.w3.org/1999/xlink" version="1.1"><g transform="translate(880.9524797729142 616.6563667254939)"><path d="M127 -223C167.7 -196.5 206 -168.8 226.7 -131.4C247.5 -94 250.7 -47 252.3 0.9C253.9 48.8 253.8 97.7 227.7 125.7C201.5 153.7 149.2 160.8 107 180.1C64.7 199.3 32.3 230.7 -1.5 233.3C-35.3 235.9 -70.7 209.7 -110.1 188.8C-149.5 167.9 -192.9 152.2 -207.9 121.6C-222.9 91 -209.5 45.5 -203.7 3.3C-197.9 -38.8 -199.9 -77.7 -182.8 -104.7C-165.8 -131.8 -129.8 -147.1 -96.1 -177.7C-62.5 -208.3 -31.3 -254.1 6 -264.4C43.2 -274.8 86.3 -249.5 127 -223" fill="#7C3AED"></path></g></svg>